<svg width="48" height="48" viewBox="0 0 48 48" fill="none" xmlns="http://www.w3.org/2000/svg">
<mask id="mask0_103_49" style="mask-type:alpha" maskUnits="userSpaceOnUse" x="0" y="0" width="48" height="48">
<rect width="48" height="48" fill="#D9D9D9"/>
</mask>
<g mask="url(#mask0_103_49)">
<path d="M12.05 41.9C11.3833 42.2 10.7583 42.15 10.175 41.75C9.59165 41.35 9.29999 40.8 9.29999 40.1V9C9.29999 7.9 9.69165 6.95833 10.475 6.175C11.2583 5.39167 12.1833 5 13.25 5H34.75C35.85 5 36.7917 5.39167 37.575 6.175C38.3583 6.95833 38.75 7.9 38.75 9V40.1C38.75 40.8 38.45 41.35 37.85 41.75C37.25 42.15 36.6167 42.2 35.95 41.9L24 36.8L12.05 41.9Z" fill="#FF451D"/>
</g>
</svg>
