<svg width="40" height="40" viewBox="0 0 40 40" fill="none" xmlns="http://www.w3.org/2000/svg">
<mask id="mask0_101_7" style="mask-type:alpha" maskUnits="userSpaceOnUse" x="0" y="0" width="40" height="40">
<rect width="40" height="40" fill="#D9D9D9"/>
</mask>
<g mask="url(#mask0_101_7)">
<path d="M25.875 27.75C25.4583 27.3053 25.25 26.7847 25.25 26.188C25.25 25.5907 25.4583 25.0837 25.875 24.667L28.375 22.167H17C16.3887 22.167 15.868 21.9587 15.438 21.542C15.0073 21.1253 14.792 20.6113 14.792 20C14.792 19.3887 15.0073 18.8747 15.438 18.458C15.868 18.0413 16.3887 17.833 17 17.833H28.333L25.75 15.25C25.3333 14.8613 25.132 14.3753 25.146 13.792C25.16 13.2087 25.389 12.6947 25.833 12.25C26.2497 11.8333 26.7637 11.632 27.375 11.646C27.9863 11.66 28.5003 11.8753 28.917 12.292L35.125 18.5C35.347 18.722 35.5137 18.965 35.625 19.229C35.7363 19.493 35.792 19.764 35.792 20.042C35.792 20.3193 35.7363 20.59 35.625 20.854C35.5137 21.118 35.347 21.3473 35.125 21.542L28.917 27.792C28.5003 28.2087 28.0003 28.41 27.417 28.396C26.8337 28.382 26.3197 28.1667 25.875 27.75ZM7.70801 36.167C6.48601 36.167 5.45134 35.7433 4.60401 34.896C3.75667 34.0487 3.33301 33.014 3.33301 31.792V8.20799C3.33301 6.98599 3.75667 5.94433 4.60401 5.08299C5.45134 4.22233 6.48601 3.79199 7.70801 3.79199H17.833C18.4443 3.79199 18.9653 4.01399 19.396 4.45799C19.8267 4.90266 20.042 5.43066 20.042 6.04199C20.042 6.62533 19.8267 7.13233 19.396 7.56299C18.9653 7.99299 18.4443 8.20799 17.833 8.20799H7.70801V31.792H17.833C18.4443 31.792 18.9653 32.0073 19.396 32.438C19.8267 32.868 20.042 33.3887 20.042 34C20.042 34.6113 19.8267 35.1253 19.396 35.542C18.9653 35.9587 18.4443 36.167 17.833 36.167H7.70801Z" fill="white"/>
</g>
</svg>
